<svg xmlns="http://www.w3.org/2000/svg" viewBox="0 0 47 42"><defs><style>.cls-1{fill:none;stroke:#000;stroke-miterlimit:10;stroke-width:3px;}</style></defs><title>Asset 5</title><g id="Layer_2" data-name="Layer 2"><g id="Layer_1-2" data-name="Layer 1"><path class="cls-1" d="M45.5,33.5H1.5V24.32A3.82,3.82,0,0,1,5.32,20.5H41.68a3.82,3.82,0,0,1,3.82,3.82Z"/><line class="cls-1" x1="1.5" y1="33.5" x2="1.5" y2="41.5"/><line class="cls-1" x1="45.5" y1="34" x2="45.5" y2="42"/><path d="M40.72,1.5H6.28A2.78,2.78,0,0,0,3.5,4.28V13.5H6V12a4,4,0,0,1,4-4h9a4,4,0,0,1,4,4v1.5h1V12a4,4,0,0,1,4-4h9a4,4,0,0,1,4,4v1.5h2.5V4.28A2.78,2.78,0,0,0,40.72,1.5"/><path class="cls-1" d="M40.72,1.5H6.28A2.78,2.78,0,0,0,3.5,4.28V13.5H6V12a4,4,0,0,1,4-4h9a4,4,0,0,1,4,4v1.5h1V12a4,4,0,0,1,4-4h9a4,4,0,0,1,4,4v1.5h2.5V4.28A2.78,2.78,0,0,0,40.72,1.5Z"/></g></g></svg>